<?xml version="1.0" encoding="UTF-8" standalone="no"?>
<!-- Created with Inkscape (http://www.inkscape.org/) -->

<svg
   width="32"
   height="32"
   viewBox="0 0 8.4666667 8.4666667"
   version="1.1"
   id="svg5"
   inkscape:version="1.1.1 (3bf5ae0d25, 2021-09-20)"
   sodipodi:docname="rock.svg"
   xmlns:inkscape="http://www.inkscape.org/namespaces/inkscape"
   xmlns:sodipodi="http://sodipodi.sourceforge.net/DTD/sodipodi-0.dtd"
   xmlns="http://www.w3.org/2000/svg"
   xmlns:svg="http://www.w3.org/2000/svg">
  <sodipodi:namedview
     id="namedview7"
     pagecolor="#ffffff"
     bordercolor="#666666"
     borderopacity="1.0"
     inkscape:pageshadow="2"
     inkscape:pageopacity="0.0"
     inkscape:pagecheckerboard="0"
     inkscape:document-units="mm"
     showgrid="false"
     units="px"
     inkscape:zoom="10.24"
     inkscape:cx="17.529297"
     inkscape:cy="27.441406"
     inkscape:window-width="1440"
     inkscape:window-height="890"
     inkscape:window-x="-6"
     inkscape:window-y="-6"
     inkscape:window-maximized="1"
     inkscape:current-layer="layer1" />
  <defs
     id="defs2" />
  <g
     inkscape:label="Layer 1"
     inkscape:groupmode="layer"
     id="layer1">
    <path
       style="fill:none;stroke:#000000;stroke-width:0.264583px;stroke-linecap:butt;stroke-linejoin:miter;stroke-opacity:1"
       d="M 0.85266114,0.59427898 C 0.56147432,1.0327088 0.6869477,1.2437227 0.64595541,1.6536458 0.63298665,1.7833334 0.6035649,1.9112159 0.59427898,2.0412191 c -0.0161899,0.2266579 -0.0368027,1.1702838 0.0516764,1.3177491 0.004431,0.00738 0.0186719,-0.00478 0.0258382,0 0.0977147,0.065143 0.13176808,0.067503 0.25838216,0.051676 C 1.2953333,3.3649999 1.6166923,3.2162567 1.9637043,3.1005859 2.2179644,3.0158324 2.4641163,2.9269862 2.7130126,2.8163655 2.9064513,2.7303928 3.0500452,2.5961728 3.2297769,2.5063069 c 0.027775,-0.013888 0.048055,-0.061496 0.077515,-0.051676 0.1247214,0.041574 0.1365028,0.2247422 0.2067058,0.3358968 0.1492419,0.2362999 0.3088171,0.4659201 0.465088,0.6976319 0.093504,0.1386448 0.1937898,0.2727418 0.2842201,0.4134115 0.1643153,0.2556015 0.17334,0.3396749 0.3617352,0.5684406 0.054202,0.065816 0.1238303,0.117493 0.1808676,0.1808675 0.1538144,0.170905 0.2859217,0.3701087 0.4392496,0.5426025 0.064737,0.072829 0.1413306,0.1344491 0.2067057,0.2067057 0.1906804,0.2107523 0.332046,0.4108442 0.5684406,0.5684409 0.2479855,0.1653236 1.1590181,0.3770985 1.4469401,0.2842205 0.168783,-0.054446 0.3280471,-0.145813 0.465088,-0.2583823 0.1392158,-0.1143559 0.3503203,-0.465695 0.4134115,-0.6459554 0.00287,-0.0082 0.050924,-0.3609829 0.051676,-0.3617351 0.062107,-0.062107 0.03549,0.1720535 0.051677,0.2583823 C 8.4768691,5.3932741 8.55245,5.531288 8.55245,5.6844079"
       id="path865" />
    <path
       style="fill:none;stroke:#000000;stroke-width:0.264583px;stroke-linecap:butt;stroke-linejoin:miter;stroke-opacity:1"
       d="M 8.5007729,1.8086751 C 8.3974201,1.8517388 8.2934491,1.8933478 8.1907143,1.9378662 7.6719672,2.1626567 7.1483436,2.375544 6.5887451,2.4804687 6.1541485,2.5619556 5.1243645,2.7562915 4.8575846,3.0230712 4.7099481,3.1707076 4.6717955,3.2691496 4.5733641,3.4364826 4.4441731,3.6561074 4.2116292,4.0307617 4.1082764,4.2116292 4.0700565,4.2785141 4.0467727,4.3536589 4.0049235,4.418335 3.7657333,4.7879925 3.8912985,4.5134588 3.7207031,4.8059083 3.6397901,4.9446161 3.5922585,5.1082011 3.5139974,5.2451579 3.4582827,5.3426584 3.3792123,5.4269727 3.3331298,5.5293783 3.28726,5.6313112 3.2539365,5.941578 3.2814535,6.0461426 c 0.022566,0.085754 0.080004,0.158763 0.129191,0.2325439 0.00138,0.00206 0.1467728,0.023545 0.129191,0.051676 C 3.4067599,6.5432841 3.3539882,6.5125639 3.1522625,6.6662598 3.0489096,6.752387 2.9455567,6.8385144 2.8422039,6.9246418 2.79914,6.950481 2.753189,6.9720242 2.7130126,7.0021566 2.6397689,7.0570893 2.582485,7.1322387 2.5063069,7.1830241 2.3563713,7.2829811 2.1903874,7.3628265 2.0412191,7.4672443 c -0.019957,0.01397 -0.030526,0.03959 -0.051677,0.051677 -0.063333,0.036191 -0.1687037,0.071433 -0.2325439,0.1033528 -0.029621,0.014811 -0.035941,0.053912 -0.051677,0.077515 -0.037267,0.0559 -0.1099285,0.069057 -0.1550293,0.1291911 -0.158652,0.2115359 -0.2584833,0.465189 -0.4392496,0.6459553"
       id="path867" />
    <path
       style="fill:none;stroke:#000000;stroke-width:0.264583px;stroke-linecap:butt;stroke-linejoin:miter;stroke-opacity:1"
       d="m 5.7102456,5.7877603 c 0,0.2560789 -0.00455,0.3881533 0.025839,0.6717938 0.012946,0.120827 0.1093494,0.5546836 0.1291911,0.6459553 0.03657,0.16822 0.1133702,0.3633248 0.077515,0.5426025 -0.025546,0.127731 -0.2888462,0.6095108 -0.4134115,0.6717937 -0.015407,0.0077 -0.039496,-0.012181 -0.051677,0 -0.025863,0.025863 0,0.1611876 0,0.2067058"
       id="path869" />
    <path
       style="fill:none;stroke:#000000;stroke-width:0.264583px;stroke-linecap:butt;stroke-linejoin:miter;stroke-opacity:1"
       d="M 6.4078775,2.4546305 C 5.9949492,2.4030145 6.1864088,2.4502372 5.5810546,2.1187337 5.2844186,1.9562901 4.9153307,1.7438196 4.6250407,1.5502929 4.3896703,1.3933793 4.162875,1.1995258 3.9015707,1.0852051 3.8535739,1.0642065 3.7984041,1.0667758 3.7465412,1.0593669 3.3028853,0.99598741 2.9431924,1.0730677 2.6096598,1.4211019 2.3229377,1.7202902 2.3514512,2.0400043 2.2996012,2.4029541 c -0.00487,0.034105 0.010894,0.07067 0,0.1033528 -0.019557,0.05867 -0.120097,0.2554941 -0.1291911,0.3100586 -0.012686,0.076119 -0.022549,0.3067695 -0.077515,0.3617351"
       id="path871" />
    <path
       style="fill:none;stroke:#000000;stroke-width:0.264583px;stroke-linecap:butt;stroke-linejoin:miter;stroke-opacity:1"
       d="M 3.5656739,5.3485107 C 3.2364092,5.3979291 2.9117372,5.4726236 2.5838216,5.5293783 2.2933051,5.57966 1.244019,5.7915449 1.1368815,5.6844075 0.8424583,5.3899842 0.96259284,5.4461179 0.64595541,5.0642903 0.45510897,4.834152 0.25615769,4.6106101 0.05167643,4.3924968 -0.00263227,4.3345674 -0.07016942,4.290587 -0.12919108,4.2374674 c -0.0271605,-0.024444 -0.0409739,-0.077515 -0.0775146,-0.077515 -0.0430637,0 -0.0169636,0.089609 0,0.1291913 0.0401228,0.09362 0.15806552,0.2614183 0.23254395,0.3358967 0.0068395,0.00684 0.06687538,0 0.07751464,0"
       id="path873" />
  </g>
</svg>
